<svg id="Layer_1" data-name="Layer 1" xmlns="http://www.w3.org/2000/svg" viewBox="0 0 496 496"><defs><style>.cls-1{fill:#004020;}.cls-2{fill:#004000;}.cls-3{fill:#214000;}.cls-4{fill:#402000;}.cls-5{fill:#404000;}.cls-6{fill:#400000;}.cls-7{fill:#400021;}.cls-8{fill:#400040;}.cls-9{fill:#1f0040;}.cls-10{fill:#0d4040;}.cls-11{fill:#002140;}.cls-12{fill:#000040;}.cls-13{fill:#004380;}.cls-14{fill:#0065bf;}.cls-15{fill:#0086ff;}.cls-16{fill:#339eff;}.cls-17{fill:#66b6ff;}.cls-18{fill:#99cfff;}.cls-19{fill:#cce7ff;}.cls-20{fill:#ffcce7;}.cls-21{fill:#ff99cf;}.cls-22{fill:#ff66b6;}.cls-23{fill:#ff339e;}.cls-24{fill:#bf0065;}.cls-25{fill:#800043;}.cls-26{fill:#e5ccff;}.cls-27{fill:#cb99ff;}.cls-28{fill:#b066ff;}.cls-29{fill:#9633ff;}.cls-30{fill:#7c00ff;}.cls-31{fill:#5d00bf;}.cls-32{fill:#3e0080;}.cls-33{fill:#ffe5cc;}.cls-34{fill:#fc9;}.cls-35{fill:#ffb266;}.cls-36{fill:#f93;}.cls-37{fill:#ff7f00;}.cls-38{fill:#bf5f00;}.cls-39{fill:#e6ffcc;}.cls-40{fill:#cdff99;}.cls-41{fill:#b5ff66;}.cls-42{fill:#9cff33;}.cls-43{fill:#83ff00;}.cls-44{fill:#62bf00;}.cls-45{fill:#428000;}.cls-46{fill:#804000;}.cls-47{fill:#ccffe5;}.cls-48{fill:#9fc;}.cls-49{fill:#66ffb2;}.cls-50{fill:#3f9;}.cls-51{fill:#00ff7f;}.cls-52{fill:#00bf5f;}.cls-53{fill:#008040;}.cls-54{fill:#adffff;}.cls-55{fill:#85ffff;}.cls-56{fill:#5cffff;}.cls-57{fill:#3ff;}.cls-58{fill:#26bfbf;}.cls-59{fill:#1a8080;}.cls-60{fill:#99f;}.cls-61{fill:#66f;}.cls-62{fill:#33f;}.cls-63{fill:blue;}.cls-64{fill:#0000bf;}.cls-65{fill:navy;}.cls-66{fill:#9f9;}.cls-67{fill:#6f6;}.cls-68{fill:#3f3;}.cls-69{fill:lime;}.cls-70{fill:#00bf00;}.cls-71{fill:green;}.cls-72{fill:#ff9;}.cls-73{fill:#ff6;}.cls-74{fill:#ff3;}.cls-75{fill:#ff0;}.cls-76{fill:#bfbf00;}.cls-77{fill:olive;}.cls-78{fill:#f99;}.cls-79{fill:#f66;}.cls-80{fill:#f33;}.cls-81{fill:red;}.cls-82{fill:#bf0000;}.cls-83{fill:maroon;}.cls-84{fill:#ffc;}.cls-85{fill:#cfc;}.cls-86{fill:#fcc;}.cls-87{fill:#d6ffff;}.cls-88{fill:purple;}.cls-89{fill:#bf00bf;}.cls-90{fill:#f0f;}.cls-91{fill:#f3f;}.cls-92{fill:#f6f;}.cls-93{fill:#f9f;}.cls-94{fill:#fcf;}.cls-95{fill:#ccf;}</style></defs><path class="cls-1" d="M250,250l15.5,26.85A30.83,30.83,0,0,1,250,281Z" transform="translate(-2 -2)"/><path class="cls-2" d="M250,250l26.85,15.5a31,31,0,0,1-11.35,11.35Z" transform="translate(-2 -2)"/><path class="cls-3" d="M250,250h31a30.83,30.83,0,0,1-4.15,15.5Z" transform="translate(-2 -2)"/><path class="cls-4" d="M276.85,234.5,250,250l15.5-26.85A31,31,0,0,1,276.85,234.5Z" transform="translate(-2 -2)"/><path class="cls-5" d="M281,250H250l26.85-15.5A30.83,30.83,0,0,1,281,250Z" transform="translate(-2 -2)"/><path class="cls-6" d="M265.5,223.15,250,250V219A30.83,30.83,0,0,1,265.5,223.15Z" transform="translate(-2 -2)"/><path class="cls-7" d="M250,219v31l-15.5-26.85A30.83,30.83,0,0,1,250,219Z" transform="translate(-2 -2)"/><path class="cls-8" d="M234.5,223.15,250,250l-26.85-15.5A31,31,0,0,1,234.5,223.15Z" transform="translate(-2 -2)"/><path class="cls-9" d="M250,250H219a30.83,30.83,0,0,1,4.15-15.5Z" transform="translate(-2 -2)"/><path class="cls-10" d="M250,250v31a30.83,30.83,0,0,1-15.5-4.15Z" transform="translate(-2 -2)"/><path class="cls-11" d="M250,250l-15.5,26.85a31,31,0,0,1-11.35-11.35Z" transform="translate(-2 -2)"/><path class="cls-12" d="M250,250l-26.85,15.5A30.83,30.83,0,0,1,219,250Z" transform="translate(-2 -2)"/><path class="cls-13" d="M234.5,276.85,219,303.71a62.24,62.24,0,0,1-22.7-22.7l26.86-15.51A31,31,0,0,0,234.5,276.85Z" transform="translate(-2 -2)"/><path class="cls-14" d="M219,303.71l-15.51,26.86a93.43,93.43,0,0,1-34-34.05L196.29,281A62.24,62.24,0,0,0,219,303.71Z" transform="translate(-2 -2)"/><path class="cls-15" d="M203.48,330.57,188,357.43A124.53,124.53,0,0,1,142.57,312l26.86-15.5A93.43,93.43,0,0,0,203.48,330.57Z" transform="translate(-2 -2)"/><path class="cls-16" d="M188,357.43l-15.51,26.85a155.67,155.67,0,0,1-56.75-56.75L142.57,312A124.53,124.53,0,0,0,188,357.43Z" transform="translate(-2 -2)"/><path class="cls-17" d="M172.47,384.28,157,411.13A186.57,186.57,0,0,1,88.87,343l26.85-15.5A155.67,155.67,0,0,0,172.47,384.28Z" transform="translate(-2 -2)"/><path class="cls-18" d="M157,411.13,141.46,438A217.76,217.76,0,0,1,62,358.54L88.87,343A186.57,186.57,0,0,0,157,411.13Z" transform="translate(-2 -2)"/><path class="cls-19" d="M141.46,438,126,464.77l0,.08A248.86,248.86,0,0,1,35.15,374l.08,0L62,358.54A217.76,217.76,0,0,0,141.46,438Z" transform="translate(-2 -2)"/><path class="cls-20" d="M250,2V33A216.11,216.11,0,0,0,141.46,62L126,35.23l0-.08A247,247,0,0,1,250,2Z" transform="translate(-2 -2)"/><path class="cls-21" d="M250,33V64a185.25,185.25,0,0,0-93,24.87L141.46,62A216.11,216.11,0,0,1,250,33Z" transform="translate(-2 -2)"/><path class="cls-22" d="M250,64V95a154.4,154.4,0,0,0-77.53,20.72L157,88.87A185.25,185.25,0,0,1,250,64Z" transform="translate(-2 -2)"/><path class="cls-23" d="M250,95v31a123.56,123.56,0,0,0-62,16.57l-15.51-26.85A154.4,154.4,0,0,1,250,95Z" transform="translate(-2 -2)"/><path class="cls-23" d="M250,126v31a92.74,92.74,0,0,0-46.52,12.43L188,142.57A123.56,123.56,0,0,1,250,126Z" transform="translate(-2 -2)"/><path class="cls-24" d="M250,157v31a61.68,61.68,0,0,0-31,8.29l-15.51-26.86A92.74,92.74,0,0,1,250,157Z" transform="translate(-2 -2)"/><path class="cls-25" d="M250,188v31a30.83,30.83,0,0,0-15.5,4.15L219,196.29A61.68,61.68,0,0,1,250,188Z" transform="translate(-2 -2)"/><path class="cls-26" d="M35.23,126,62,141.46A216.11,216.11,0,0,0,33,250H2A247,247,0,0,1,35.15,126Z" transform="translate(-2 -2)"/><path class="cls-27" d="M62,141.46,88.87,157A185.25,185.25,0,0,0,64,250H33A216.11,216.11,0,0,1,62,141.46Z" transform="translate(-2 -2)"/><path class="cls-28" d="M88.87,157l26.85,15.5A154.4,154.4,0,0,0,95,250H64A185.25,185.25,0,0,1,88.87,157Z" transform="translate(-2 -2)"/><path class="cls-29" d="M115.72,172.47,142.57,188A123.56,123.56,0,0,0,126,250H95A154.4,154.4,0,0,1,115.72,172.47Z" transform="translate(-2 -2)"/><path class="cls-30" d="M142.57,188l26.86,15.5A92.74,92.74,0,0,0,157,250H126A123.56,123.56,0,0,1,142.57,188Z" transform="translate(-2 -2)"/><path class="cls-31" d="M169.43,203.48,196.29,219A61.68,61.68,0,0,0,188,250H157A92.74,92.74,0,0,1,169.43,203.48Z" transform="translate(-2 -2)"/><path class="cls-32" d="M196.29,219l26.86,15.51A30.83,30.83,0,0,0,219,250H188A61.68,61.68,0,0,1,196.29,219Z" transform="translate(-2 -2)"/><path class="cls-33" d="M464.85,126l-.08,0L438,141.46A217.76,217.76,0,0,0,358.54,62L374,35.23l0-.08A248.86,248.86,0,0,1,464.85,126Z" transform="translate(-2 -2)"/><path class="cls-34" d="M438,141.46,411.13,157A186.57,186.57,0,0,0,343,88.87L358.54,62A217.76,217.76,0,0,1,438,141.46Z" transform="translate(-2 -2)"/><path class="cls-35" d="M411.13,157l-26.85,15.5a155.67,155.67,0,0,0-56.75-56.75L343,88.87A186.57,186.57,0,0,1,411.13,157Z" transform="translate(-2 -2)"/><path class="cls-36" d="M384.28,172.47,357.43,188A124.53,124.53,0,0,0,312,142.57l15.51-26.85A155.67,155.67,0,0,1,384.28,172.47Z" transform="translate(-2 -2)"/><path class="cls-37" d="M357.43,188l-26.86,15.5a93.43,93.43,0,0,0-34.05-34L312,142.57A124.53,124.53,0,0,1,357.43,188Z" transform="translate(-2 -2)"/><path class="cls-38" d="M330.57,203.48,303.71,219a62.24,62.24,0,0,0-22.7-22.7l15.51-26.86A93.43,93.43,0,0,1,330.57,203.48Z" transform="translate(-2 -2)"/><path class="cls-39" d="M467,250h31a247,247,0,0,1-33.15,124l-.08,0L438,358.54A216.11,216.11,0,0,0,467,250Z" transform="translate(-2 -2)"/><path class="cls-40" d="M436,250h31a216.11,216.11,0,0,1-29,108.54L411.13,343A185.25,185.25,0,0,0,436,250Z" transform="translate(-2 -2)"/><path class="cls-41" d="M405,250h31a185.25,185.25,0,0,1-24.87,93l-26.85-15.5A154.4,154.4,0,0,0,405,250Z" transform="translate(-2 -2)"/><path class="cls-42" d="M374,250h31a154.4,154.4,0,0,1-20.72,77.53L357.43,312A123.56,123.56,0,0,0,374,250Z" transform="translate(-2 -2)"/><path class="cls-43" d="M343,250h31a123.56,123.56,0,0,1-16.57,62l-26.86-15.5A92.74,92.74,0,0,0,343,250Z" transform="translate(-2 -2)"/><path class="cls-44" d="M312,250h31a92.74,92.74,0,0,1-12.43,46.52L303.71,281A61.68,61.68,0,0,0,312,250Z" transform="translate(-2 -2)"/><path class="cls-45" d="M281,250h31a61.68,61.68,0,0,1-8.29,31L276.85,265.5A30.83,30.83,0,0,0,281,250Z" transform="translate(-2 -2)"/><path class="cls-46" d="M303.71,219,276.85,234.5a31,31,0,0,0-11.35-11.35L281,196.29A62.24,62.24,0,0,1,303.71,219Z" transform="translate(-2 -2)"/><path class="cls-47" d="M374,464.77l0,.08A247,247,0,0,1,250,498V467a216.11,216.11,0,0,0,108.54-29Z" transform="translate(-2 -2)"/><path class="cls-48" d="M343,411.13,358.54,438A216.11,216.11,0,0,1,250,467V436A185.25,185.25,0,0,0,343,411.13Z" transform="translate(-2 -2)"/><path class="cls-49" d="M327.53,384.28,343,411.13A185.25,185.25,0,0,1,250,436V405A154.4,154.4,0,0,0,327.53,384.28Z" transform="translate(-2 -2)"/><path class="cls-50" d="M312,357.43l15.51,26.85A154.4,154.4,0,0,1,250,405V374A123.56,123.56,0,0,0,312,357.43Z" transform="translate(-2 -2)"/><path class="cls-51" d="M296.52,330.57,312,357.43A123.56,123.56,0,0,1,250,374V343A92.74,92.74,0,0,0,296.52,330.57Z" transform="translate(-2 -2)"/><path class="cls-52" d="M281,303.71l15.51,26.86A92.74,92.74,0,0,1,250,343V312A61.68,61.68,0,0,0,281,303.71Z" transform="translate(-2 -2)"/><path class="cls-53" d="M265.5,276.85,281,303.71A61.68,61.68,0,0,1,250,312V281A30.83,30.83,0,0,0,265.5,276.85Z" transform="translate(-2 -2)"/><path class="cls-54" d="M250,436v31a216.11,216.11,0,0,1-108.54-29L157,411.13A185.25,185.25,0,0,0,250,436Z" transform="translate(-2 -2)"/><path class="cls-55" d="M250,405v31a185.25,185.25,0,0,1-93-24.87l15.5-26.85A154.4,154.4,0,0,0,250,405Z" transform="translate(-2 -2)"/><path class="cls-56" d="M250,374v31a154.4,154.4,0,0,1-77.53-20.72L188,357.43A123.56,123.56,0,0,0,250,374Z" transform="translate(-2 -2)"/><path class="cls-57" d="M250,343v31a123.56,123.56,0,0,1-62-16.57l15.5-26.86A92.74,92.74,0,0,0,250,343Z" transform="translate(-2 -2)"/><path class="cls-58" d="M250,312v31a92.74,92.74,0,0,1-46.52-12.43L219,303.71A61.68,61.68,0,0,0,250,312Z" transform="translate(-2 -2)"/><path class="cls-59" d="M250,281v31a61.68,61.68,0,0,1-31-8.29l15.51-26.86A30.83,30.83,0,0,0,250,281Z" transform="translate(-2 -2)"/><path class="cls-60" d="M88.87,343,62,358.54A216.11,216.11,0,0,1,33,250H64A185.25,185.25,0,0,0,88.87,343Z" transform="translate(-2 -2)"/><path class="cls-61" d="M115.72,327.53,88.87,343A185.25,185.25,0,0,1,64,250H95A154.4,154.4,0,0,0,115.72,327.53Z" transform="translate(-2 -2)"/><path class="cls-62" d="M142.57,312l-26.85,15.51A154.4,154.4,0,0,1,95,250h31A123.56,123.56,0,0,0,142.57,312Z" transform="translate(-2 -2)"/><path class="cls-63" d="M169.43,296.52,142.57,312A123.56,123.56,0,0,1,126,250h31A92.74,92.74,0,0,0,169.43,296.52Z" transform="translate(-2 -2)"/><path class="cls-64" d="M196.29,281l-26.86,15.51A92.74,92.74,0,0,1,157,250h31A61.68,61.68,0,0,0,196.29,281Z" transform="translate(-2 -2)"/><path class="cls-65" d="M223.15,265.5,196.29,281A61.68,61.68,0,0,1,188,250h31A30.83,30.83,0,0,0,223.15,265.5Z" transform="translate(-2 -2)"/><path class="cls-66" d="M411.13,343,438,358.54A217.76,217.76,0,0,1,358.54,438L343,411.13A186.57,186.57,0,0,0,411.13,343Z" transform="translate(-2 -2)"/><path class="cls-67" d="M384.28,327.53,411.13,343a186.57,186.57,0,0,1-68.1,68.1l-15.5-26.85A155.67,155.67,0,0,0,384.28,327.53Z" transform="translate(-2 -2)"/><path class="cls-68" d="M357.43,312l26.85,15.51a155.67,155.67,0,0,1-56.75,56.75L312,357.43A124.53,124.53,0,0,0,357.43,312Z" transform="translate(-2 -2)"/><path class="cls-69" d="M330.57,296.52,357.43,312A124.53,124.53,0,0,1,312,357.43l-15.5-26.86A93.43,93.43,0,0,0,330.57,296.52Z" transform="translate(-2 -2)"/><path class="cls-70" d="M303.71,281l26.86,15.51a93.43,93.43,0,0,1-34.05,34.05L281,303.71A62.24,62.24,0,0,0,303.71,281Z" transform="translate(-2 -2)"/><path class="cls-71" d="M276.85,265.5,303.71,281a62.24,62.24,0,0,1-22.7,22.7L265.5,276.85A31,31,0,0,0,276.85,265.5Z" transform="translate(-2 -2)"/><path class="cls-72" d="M467,250H436a185.25,185.25,0,0,0-24.87-93L438,141.46A216.11,216.11,0,0,1,467,250Z" transform="translate(-2 -2)"/><path class="cls-73" d="M436,250H405a154.4,154.4,0,0,0-20.72-77.53L411.13,157A185.25,185.25,0,0,1,436,250Z" transform="translate(-2 -2)"/><path class="cls-74" d="M405,250H374a123.56,123.56,0,0,0-16.57-62l26.85-15.51A154.4,154.4,0,0,1,405,250Z" transform="translate(-2 -2)"/><path class="cls-75" d="M374,250H343a92.74,92.74,0,0,0-12.43-46.52L357.43,188A123.56,123.56,0,0,1,374,250Z" transform="translate(-2 -2)"/><path class="cls-76" d="M343,250H312a61.68,61.68,0,0,0-8.29-31l26.86-15.51A92.74,92.74,0,0,1,343,250Z" transform="translate(-2 -2)"/><path class="cls-77" d="M312,250H281a30.83,30.83,0,0,0-4.15-15.5L303.71,219A61.68,61.68,0,0,1,312,250Z" transform="translate(-2 -2)"/><path class="cls-78" d="M358.54,62,343,88.87A185.25,185.25,0,0,0,250,64V33A216.11,216.11,0,0,1,358.54,62Z" transform="translate(-2 -2)"/><path class="cls-79" d="M343,88.87l-15.5,26.85A154.4,154.4,0,0,0,250,95V64A185.25,185.25,0,0,1,343,88.87Z" transform="translate(-2 -2)"/><path class="cls-80" d="M327.53,115.72,312,142.57A123.56,123.56,0,0,0,250,126V95A154.4,154.4,0,0,1,327.53,115.72Z" transform="translate(-2 -2)"/><path class="cls-81" d="M312,142.57l-15.5,26.86A92.74,92.74,0,0,0,250,157V126A123.56,123.56,0,0,1,312,142.57Z" transform="translate(-2 -2)"/><path class="cls-82" d="M296.52,169.43,281,196.29A61.68,61.68,0,0,0,250,188V157A92.74,92.74,0,0,1,296.52,169.43Z" transform="translate(-2 -2)"/><path class="cls-83" d="M281,196.29,265.5,223.15A30.83,30.83,0,0,0,250,219V188A61.68,61.68,0,0,1,281,196.29Z" transform="translate(-2 -2)"/><path class="cls-84" d="M498,250H467a216.11,216.11,0,0,0-29-108.54L464.77,126l.08,0A247,247,0,0,1,498,250Z" transform="translate(-2 -2)"/><path class="cls-85" d="M464.77,374l.08,0A248.86,248.86,0,0,1,374,464.85l0-.08L358.54,438A217.76,217.76,0,0,0,438,358.54Z" transform="translate(-2 -2)"/><path class="cls-86" d="M374,35.15l0,.08L358.54,62A216.11,216.11,0,0,0,250,33V2A247,247,0,0,1,374,35.15Z" transform="translate(-2 -2)"/><path class="cls-87" d="M250,467v31a247,247,0,0,1-124-33.15l0-.08L141.46,438A216.11,216.11,0,0,0,250,467Z" transform="translate(-2 -2)"/><path class="cls-88" d="M219,196.29l15.51,26.86a31,31,0,0,0-11.35,11.35L196.29,219A62.24,62.24,0,0,1,219,196.29Z" transform="translate(-2 -2)"/><path class="cls-89" d="M203.48,169.43,219,196.29a62.24,62.24,0,0,0-22.7,22.7l-26.86-15.51A93.43,93.43,0,0,1,203.48,169.43Z" transform="translate(-2 -2)"/><path class="cls-90" d="M188,142.57l15.5,26.86a93.43,93.43,0,0,0-34,34L142.57,188A124.53,124.53,0,0,1,188,142.57Z" transform="translate(-2 -2)"/><path class="cls-91" d="M172.47,115.72,188,142.57A124.53,124.53,0,0,0,142.57,188l-26.85-15.51A155.67,155.67,0,0,1,172.47,115.72Z" transform="translate(-2 -2)"/><path class="cls-92" d="M157,88.87l15.5,26.85a155.67,155.67,0,0,0-56.75,56.75L88.87,157A186.57,186.57,0,0,1,157,88.87Z" transform="translate(-2 -2)"/><path class="cls-93" d="M141.46,62,157,88.87A186.57,186.57,0,0,0,88.87,157L62,141.46A217.76,217.76,0,0,1,141.46,62Z" transform="translate(-2 -2)"/><path class="cls-94" d="M126,35.23,141.46,62A217.76,217.76,0,0,0,62,141.46L35.23,126l-.08,0A248.86,248.86,0,0,1,126,35.15Z" transform="translate(-2 -2)"/><path class="cls-95" d="M62,358.54,35.23,374l-.08,0A247,247,0,0,1,2,250H33A216.11,216.11,0,0,0,62,358.54Z" transform="translate(-2 -2)"/></svg>