<?xml version="1.0" encoding="utf-8"?>
<!-- Generator: Adobe Illustrator 25.2.1, SVG Export Plug-In . SVG Version: 6.00 Build 0)  -->
<svg version="1.1" id="Layer_1" xmlns="http://www.w3.org/2000/svg" xmlns:xlink="http://www.w3.org/1999/xlink" x="0px" y="0px"
	 viewBox="0 0 140.9 332.39" style="enable-background:new 0 0 140.9 332.39;" xml:space="preserve">
<style type="text/css">
	.st0{fill:none;stroke:#F86F00;stroke-width:10;stroke-miterlimit:10;}
</style>
<path class="st0" d="M135.88,96.39c0,0-4.58,121.95-4.92,126.46c-0.29,3.59-0.92,77.15-16.81,99.55
	c-3.15,4.43-72.95,8.79-80.74-0.53C17.01,302.27,13.67,229,12.79,221.16c-1.06-9.58-7.76-124.1-7.76-124.1
	c7.56-31.43,22.7-47.83,41.95-52.79c-0.49-1.28-2.84-2.74-2.84-4.2l3.46-23.4C47.62,10.22,52.86,5,59.3,5h23.04
	c6.45,0,11.69,5.22,11.69,11.67l2.39,22.39c0,1.48-2.15,2.26-2.67,3.56C113.87,48.12,130.62,68.42,135.88,96.39z"/>
</svg>
